<mxfile host="Electron" modified="2024-08-01T16:09:58.971Z" agent="Mozilla/5.0 (Macintosh; Intel Mac OS X 10_15_7) AppleWebKit/537.36 (KHTML, like Gecko) draw.io/23.1.5 Chrome/120.0.6099.109 Electron/28.1.0 Safari/537.36" etag="Oc22dx7hj8yfHWO0M3Gi" version="23.1.5" type="device">
  <diagram name="Page-1" id="Cn7lh2f_qwJj_xN6BR2J">
    <mxGraphModel dx="775" dy="462" grid="1" gridSize="10" guides="1" tooltips="1" connect="1" arrows="1" fold="1" page="1" pageScale="1" pageWidth="850" pageHeight="1100" math="1" shadow="0">
      <root>
        <mxCell id="0" />
        <mxCell id="1" parent="0" />
        <mxCell id="z7yP89r6i3u3OnS2TuMU-15" value="" style="rounded=1;whiteSpace=wrap;html=1;fillColor=none;dashed=1;dashPattern=1 1;" parent="1" vertex="1">
          <mxGeometry x="260" y="220" width="200" height="95" as="geometry" />
        </mxCell>
        <mxCell id="z7yP89r6i3u3OnS2TuMU-8" value="" style="rounded=1;whiteSpace=wrap;html=1;fillColor=none;dashed=1;dashPattern=1 1;" parent="1" vertex="1">
          <mxGeometry x="380" y="275" width="135" height="80" as="geometry" />
        </mxCell>
        <mxCell id="z7yP89r6i3u3OnS2TuMU-1" value="\(O_1\)" style="ellipse;whiteSpace=wrap;html=1;aspect=fixed;fillColor=#f8cecc;strokeColor=#b85450;" parent="1" vertex="1">
          <mxGeometry x="435" y="320" width="30" height="30" as="geometry" />
        </mxCell>
        <mxCell id="z7yP89r6i3u3OnS2TuMU-24" style="edgeStyle=orthogonalEdgeStyle;rounded=0;orthogonalLoop=1;jettySize=auto;html=1;exitX=1;exitY=0.5;exitDx=0;exitDy=0;entryX=0;entryY=0.5;entryDx=0;entryDy=0;startArrow=none;startFill=0;endArrow=none;endFill=0;fillColor=#d5e8d4;strokeColor=#82b366;strokeWidth=3;" parent="1" source="z7yP89r6i3u3OnS2TuMU-2" target="z7yP89r6i3u3OnS2TuMU-1" edge="1">
          <mxGeometry relative="1" as="geometry" />
        </mxCell>
        <mxCell id="z7yP89r6i3u3OnS2TuMU-2" value="\(O_0\)" style="ellipse;whiteSpace=wrap;html=1;aspect=fixed;fillColor=#f8cecc;strokeColor=#b85450;" parent="1" vertex="1">
          <mxGeometry x="385" y="320" width="30" height="30" as="geometry" />
        </mxCell>
        <mxCell id="z7yP89r6i3u3OnS2TuMU-3" value="\(O_6\)" style="ellipse;whiteSpace=wrap;html=1;aspect=fixed;fillColor=#f8cecc;strokeColor=#b85450;" parent="1" vertex="1">
          <mxGeometry x="475" y="320" width="30" height="30" as="geometry" />
        </mxCell>
        <mxCell id="z7yP89r6i3u3OnS2TuMU-5" style="rounded=0;orthogonalLoop=1;jettySize=auto;html=1;exitX=0;exitY=1;exitDx=0;exitDy=0;entryX=1;entryY=0;entryDx=0;entryDy=0;endArrow=none;endFill=0;" parent="1" source="z7yP89r6i3u3OnS2TuMU-4" target="z7yP89r6i3u3OnS2TuMU-2" edge="1">
          <mxGeometry relative="1" as="geometry" />
        </mxCell>
        <mxCell id="z7yP89r6i3u3OnS2TuMU-6" style="rounded=0;orthogonalLoop=1;jettySize=auto;html=1;exitX=0.638;exitY=0.99;exitDx=0;exitDy=0;entryX=0.399;entryY=0.01;entryDx=0;entryDy=0;endArrow=none;endFill=0;exitPerimeter=0;entryPerimeter=0;" parent="1" source="z7yP89r6i3u3OnS2TuMU-4" target="z7yP89r6i3u3OnS2TuMU-1" edge="1">
          <mxGeometry relative="1" as="geometry" />
        </mxCell>
        <mxCell id="z7yP89r6i3u3OnS2TuMU-7" style="rounded=0;orthogonalLoop=1;jettySize=auto;html=1;exitX=1;exitY=1;exitDx=0;exitDy=0;entryX=0;entryY=0;entryDx=0;entryDy=0;endArrow=none;endFill=0;" parent="1" source="z7yP89r6i3u3OnS2TuMU-4" target="z7yP89r6i3u3OnS2TuMU-3" edge="1">
          <mxGeometry relative="1" as="geometry" />
        </mxCell>
        <mxCell id="z7yP89r6i3u3OnS2TuMU-4" value="\(O_7\)" style="ellipse;whiteSpace=wrap;html=1;aspect=fixed;fillColor=#dae8fc;strokeColor=#6c8ebf;" parent="1" vertex="1">
          <mxGeometry x="425" y="280" width="30" height="30" as="geometry" />
        </mxCell>
        <mxCell id="z7yP89r6i3u3OnS2TuMU-9" value="\(O_3\)" style="ellipse;whiteSpace=wrap;html=1;aspect=fixed;fillColor=#f8cecc;strokeColor=#b85450;" parent="1" vertex="1">
          <mxGeometry x="330" y="280" width="30" height="30" as="geometry" />
        </mxCell>
        <mxCell id="z7yP89r6i3u3OnS2TuMU-10" value="\(O_2\)" style="ellipse;whiteSpace=wrap;html=1;aspect=fixed;fillColor=#f8cecc;strokeColor=#b85450;" parent="1" vertex="1">
          <mxGeometry x="265" y="280" width="30" height="30" as="geometry" />
        </mxCell>
        <mxCell id="z7yP89r6i3u3OnS2TuMU-12" style="rounded=0;orthogonalLoop=1;jettySize=auto;html=1;exitX=0;exitY=1;exitDx=0;exitDy=0;entryX=1;entryY=0;entryDx=0;entryDy=0;endArrow=none;endFill=0;" parent="1" source="z7yP89r6i3u3OnS2TuMU-11" target="z7yP89r6i3u3OnS2TuMU-10" edge="1">
          <mxGeometry relative="1" as="geometry" />
        </mxCell>
        <mxCell id="z7yP89r6i3u3OnS2TuMU-21" value="\(X\)" style="edgeLabel;html=1;align=center;verticalAlign=middle;resizable=0;points=[];" parent="z7yP89r6i3u3OnS2TuMU-12" vertex="1" connectable="0">
          <mxGeometry x="-0.1074" y="1" relative="1" as="geometry">
            <mxPoint x="-3" as="offset" />
          </mxGeometry>
        </mxCell>
        <mxCell id="z7yP89r6i3u3OnS2TuMU-13" style="rounded=0;orthogonalLoop=1;jettySize=auto;html=1;exitX=0.5;exitY=1;exitDx=0;exitDy=0;entryX=0.5;entryY=0;entryDx=0;entryDy=0;endArrow=none;endFill=0;" parent="1" source="z7yP89r6i3u3OnS2TuMU-11" target="z7yP89r6i3u3OnS2TuMU-9" edge="1">
          <mxGeometry relative="1" as="geometry" />
        </mxCell>
        <mxCell id="z7yP89r6i3u3OnS2TuMU-22" value="\(Y\)" style="edgeLabel;html=1;align=center;verticalAlign=middle;resizable=0;points=[];" parent="z7yP89r6i3u3OnS2TuMU-13" vertex="1" connectable="0">
          <mxGeometry x="-0.0667" y="-1" relative="1" as="geometry">
            <mxPoint as="offset" />
          </mxGeometry>
        </mxCell>
        <mxCell id="z7yP89r6i3u3OnS2TuMU-14" style="rounded=0;orthogonalLoop=1;jettySize=auto;html=1;exitX=0.974;exitY=0.665;exitDx=0;exitDy=0;entryX=0.026;entryY=0.279;entryDx=0;entryDy=0;endArrow=none;endFill=0;exitPerimeter=0;entryPerimeter=0;" parent="1" source="z7yP89r6i3u3OnS2TuMU-11" target="z7yP89r6i3u3OnS2TuMU-4" edge="1">
          <mxGeometry relative="1" as="geometry" />
        </mxCell>
        <mxCell id="z7yP89r6i3u3OnS2TuMU-27" value="\(Z\)" style="edgeLabel;html=1;align=center;verticalAlign=middle;resizable=0;points=[];" parent="z7yP89r6i3u3OnS2TuMU-14" vertex="1" connectable="0">
          <mxGeometry x="-0.2113" y="-1" relative="1" as="geometry">
            <mxPoint x="8" y="4" as="offset" />
          </mxGeometry>
        </mxCell>
        <mxCell id="z7yP89r6i3u3OnS2TuMU-11" value="\(O_8\)" style="ellipse;whiteSpace=wrap;html=1;aspect=fixed;fillColor=#dae8fc;strokeColor=#6c8ebf;" parent="1" vertex="1">
          <mxGeometry x="330" y="225" width="30" height="30" as="geometry" />
        </mxCell>
        <mxCell id="z7yP89r6i3u3OnS2TuMU-16" value="1st Step" style="text;html=1;align=center;verticalAlign=middle;whiteSpace=wrap;rounded=0;" parent="1" vertex="1">
          <mxGeometry x="462.5" y="275" width="55" height="20" as="geometry" />
        </mxCell>
        <mxCell id="z7yP89r6i3u3OnS2TuMU-17" value="2nd Step" style="text;html=1;align=center;verticalAlign=middle;whiteSpace=wrap;rounded=0;" parent="1" vertex="1">
          <mxGeometry x="405" y="220" width="55" height="20" as="geometry" />
        </mxCell>
        <mxCell id="z7yP89r6i3u3OnS2TuMU-19" value="\(O_x=O_2\)" style="text;html=1;align=center;verticalAlign=middle;whiteSpace=wrap;rounded=0;" parent="1" vertex="1">
          <mxGeometry x="250" y="315" width="60" height="20" as="geometry" />
        </mxCell>
        <mxCell id="z7yP89r6i3u3OnS2TuMU-20" value="\(O_y=O_3\)" style="text;html=1;align=center;verticalAlign=middle;whiteSpace=wrap;rounded=0;" parent="1" vertex="1">
          <mxGeometry x="315" y="315" width="60" height="20" as="geometry" />
        </mxCell>
        <mxCell id="z7yP89r6i3u3OnS2TuMU-23" value="" style="endArrow=none;startArrow=none;html=1;rounded=0;exitX=1;exitY=0.5;exitDx=0;exitDy=0;entryX=0;entryY=0.5;entryDx=0;entryDy=0;startFill=0;endFill=0;fillColor=#d5e8d4;strokeColor=#82b366;strokeWidth=3;" parent="1" source="z7yP89r6i3u3OnS2TuMU-10" target="z7yP89r6i3u3OnS2TuMU-9" edge="1">
          <mxGeometry width="50" height="50" relative="1" as="geometry">
            <mxPoint x="320" y="400" as="sourcePoint" />
            <mxPoint x="370" y="350" as="targetPoint" />
          </mxGeometry>
        </mxCell>
        <mxCell id="z7yP89r6i3u3OnS2TuMU-25" value="" style="endArrow=none;startArrow=none;html=1;rounded=0;exitX=1;exitY=0.5;exitDx=0;exitDy=0;entryX=0;entryY=0.5;entryDx=0;entryDy=0;startFill=0;endFill=0;fillColor=#d5e8d4;strokeColor=#82b366;strokeWidth=3;" parent="1" edge="1">
          <mxGeometry width="50" height="50" relative="1" as="geometry">
            <mxPoint x="260" y="367.3" as="sourcePoint" />
            <mxPoint x="295" y="367.3" as="targetPoint" />
          </mxGeometry>
        </mxCell>
        <mxCell id="z7yP89r6i3u3OnS2TuMU-26" value="&lt;b style=&quot;font-size: 14px;&quot;&gt;&lt;font style=&quot;font-size: 14px;&quot; face=&quot;Verdana&quot;&gt;valid pair&lt;/font&gt;&lt;/b&gt;" style="text;html=1;align=center;verticalAlign=middle;whiteSpace=wrap;rounded=0;fontColor=#82b366;fontSize=14;" parent="1" vertex="1">
          <mxGeometry x="300" y="360" width="80" height="15" as="geometry" />
        </mxCell>
        <mxCell id="z7yP89r6i3u3OnS2TuMU-28" value="" style="rounded=1;whiteSpace=wrap;html=1;fillColor=none;dashed=1;dashPattern=1 1;" parent="1" vertex="1">
          <mxGeometry x="115" y="220" width="115" height="95" as="geometry" />
        </mxCell>
        <mxCell id="z7yP89r6i3u3OnS2TuMU-29" value="" style="rounded=1;whiteSpace=wrap;html=1;fillColor=none;dashed=1;dashPattern=1 1;" parent="1" vertex="1">
          <mxGeometry x="50" y="275" width="135" height="80" as="geometry" />
        </mxCell>
        <mxCell id="z7yP89r6i3u3OnS2TuMU-30" value="\(O_1\)" style="ellipse;whiteSpace=wrap;html=1;aspect=fixed;fillColor=#f8cecc;strokeColor=#b85450;" parent="1" vertex="1">
          <mxGeometry x="105" y="320" width="30" height="30" as="geometry" />
        </mxCell>
        <mxCell id="z7yP89r6i3u3OnS2TuMU-31" style="edgeStyle=orthogonalEdgeStyle;rounded=0;orthogonalLoop=1;jettySize=auto;html=1;exitX=1;exitY=0.5;exitDx=0;exitDy=0;entryX=0;entryY=0.5;entryDx=0;entryDy=0;startArrow=none;startFill=0;endArrow=none;endFill=0;fillColor=#d5e8d4;strokeColor=#82b366;strokeWidth=3;" parent="1" source="z7yP89r6i3u3OnS2TuMU-32" target="z7yP89r6i3u3OnS2TuMU-30" edge="1">
          <mxGeometry relative="1" as="geometry" />
        </mxCell>
        <mxCell id="z7yP89r6i3u3OnS2TuMU-32" value="\(O_0\)" style="ellipse;whiteSpace=wrap;html=1;aspect=fixed;fillColor=#f8cecc;strokeColor=#b85450;" parent="1" vertex="1">
          <mxGeometry x="55" y="320" width="30" height="30" as="geometry" />
        </mxCell>
        <mxCell id="z7yP89r6i3u3OnS2TuMU-33" value="\(O_6\)" style="ellipse;whiteSpace=wrap;html=1;aspect=fixed;fillColor=#f8cecc;strokeColor=#b85450;" parent="1" vertex="1">
          <mxGeometry x="145" y="320" width="30" height="30" as="geometry" />
        </mxCell>
        <mxCell id="z7yP89r6i3u3OnS2TuMU-34" style="rounded=0;orthogonalLoop=1;jettySize=auto;html=1;exitX=0.052;exitY=0.732;exitDx=0;exitDy=0;entryX=1;entryY=0;entryDx=0;entryDy=0;endArrow=none;endFill=0;exitPerimeter=0;" parent="1" source="z7yP89r6i3u3OnS2TuMU-37" target="z7yP89r6i3u3OnS2TuMU-32" edge="1">
          <mxGeometry relative="1" as="geometry" />
        </mxCell>
        <mxCell id="z7yP89r6i3u3OnS2TuMU-35" style="rounded=0;orthogonalLoop=1;jettySize=auto;html=1;exitX=0.409;exitY=0.994;exitDx=0;exitDy=0;entryX=0.721;entryY=0.018;entryDx=0;entryDy=0;endArrow=none;endFill=0;exitPerimeter=0;entryPerimeter=0;" parent="1" source="z7yP89r6i3u3OnS2TuMU-37" target="z7yP89r6i3u3OnS2TuMU-30" edge="1">
          <mxGeometry relative="1" as="geometry" />
        </mxCell>
        <mxCell id="z7yP89r6i3u3OnS2TuMU-36" style="rounded=0;orthogonalLoop=1;jettySize=auto;html=1;exitX=0.813;exitY=0.907;exitDx=0;exitDy=0;entryX=0.276;entryY=0.038;entryDx=0;entryDy=0;endArrow=none;endFill=0;entryPerimeter=0;exitPerimeter=0;strokeWidth=3;" parent="1" source="z7yP89r6i3u3OnS2TuMU-37" target="z7yP89r6i3u3OnS2TuMU-33" edge="1">
          <mxGeometry relative="1" as="geometry" />
        </mxCell>
        <mxCell id="z7yP89r6i3u3OnS2TuMU-37" value="\(O_7\)" style="ellipse;whiteSpace=wrap;html=1;aspect=fixed;fillColor=#dae8fc;strokeColor=#6c8ebf;" parent="1" vertex="1">
          <mxGeometry x="120" y="280" width="30" height="30" as="geometry" />
        </mxCell>
        <mxCell id="z7yP89r6i3u3OnS2TuMU-39" value="\(O_2\)" style="ellipse;whiteSpace=wrap;html=1;aspect=fixed;fillColor=#f8cecc;strokeColor=#b85450;" parent="1" vertex="1">
          <mxGeometry x="195" y="280" width="30" height="30" as="geometry" />
        </mxCell>
        <mxCell id="z7yP89r6i3u3OnS2TuMU-44" style="rounded=0;orthogonalLoop=1;jettySize=auto;html=1;exitX=0;exitY=1;exitDx=0;exitDy=0;entryX=1;entryY=0;entryDx=0;entryDy=0;endArrow=none;endFill=0;strokeWidth=3;" parent="1" source="z7yP89r6i3u3OnS2TuMU-46" target="z7yP89r6i3u3OnS2TuMU-37" edge="1">
          <mxGeometry relative="1" as="geometry" />
        </mxCell>
        <mxCell id="z7yP89r6i3u3OnS2TuMU-55" value="\(X\)" style="edgeLabel;html=1;align=center;verticalAlign=middle;resizable=0;points=[];" parent="z7yP89r6i3u3OnS2TuMU-44" vertex="1" connectable="0">
          <mxGeometry x="-0.0859" relative="1" as="geometry">
            <mxPoint x="2" y="-2" as="offset" />
          </mxGeometry>
        </mxCell>
        <mxCell id="z7yP89r6i3u3OnS2TuMU-46" value="\(O_8\)" style="ellipse;whiteSpace=wrap;html=1;aspect=fixed;fillColor=#dae8fc;strokeColor=#6c8ebf;" parent="1" vertex="1">
          <mxGeometry x="175" y="225" width="30" height="30" as="geometry" />
        </mxCell>
        <mxCell id="z7yP89r6i3u3OnS2TuMU-47" value="1st Step" style="text;html=1;align=center;verticalAlign=middle;whiteSpace=wrap;rounded=0;" parent="1" vertex="1">
          <mxGeometry x="50" y="275" width="55" height="20" as="geometry" />
        </mxCell>
        <mxCell id="z7yP89r6i3u3OnS2TuMU-48" value="2nd Step" style="text;html=1;align=center;verticalAlign=middle;whiteSpace=wrap;rounded=0;" parent="1" vertex="1">
          <mxGeometry x="115" y="220" width="55" height="20" as="geometry" />
        </mxCell>
        <mxCell id="z7yP89r6i3u3OnS2TuMU-54" style="rounded=0;orthogonalLoop=1;jettySize=auto;html=1;exitX=0.623;exitY=0.979;exitDx=0;exitDy=0;entryX=0.319;entryY=0.044;entryDx=0;entryDy=0;entryPerimeter=0;endArrow=none;endFill=0;exitPerimeter=0;" parent="1" source="z7yP89r6i3u3OnS2TuMU-46" target="z7yP89r6i3u3OnS2TuMU-39" edge="1">
          <mxGeometry relative="1" as="geometry" />
        </mxCell>
        <mxCell id="z7yP89r6i3u3OnS2TuMU-56" value="\(Z\)" style="edgeLabel;html=1;align=center;verticalAlign=middle;resizable=0;points=[];" parent="z7yP89r6i3u3OnS2TuMU-54" vertex="1" connectable="0">
          <mxGeometry x="-0.3864" relative="1" as="geometry">
            <mxPoint y="1" as="offset" />
          </mxGeometry>
        </mxCell>
        <mxCell id="z7yP89r6i3u3OnS2TuMU-57" value="" style="endArrow=none;dashed=1;html=1;rounded=0;dashPattern=8 8;" parent="1" edge="1">
          <mxGeometry width="50" height="50" relative="1" as="geometry">
            <mxPoint x="245" y="380" as="sourcePoint" />
            <mxPoint x="245" y="215" as="targetPoint" />
          </mxGeometry>
        </mxCell>
        <mxCell id="z7yP89r6i3u3OnS2TuMU-58" value="&lt;b&gt;(a)&lt;/b&gt;" style="text;html=1;align=center;verticalAlign=middle;whiteSpace=wrap;rounded=0;fontSize=15;" parent="1" vertex="1">
          <mxGeometry x="195" y="330" width="60" height="30" as="geometry" />
        </mxCell>
        <mxCell id="z7yP89r6i3u3OnS2TuMU-59" value="&lt;b&gt;(b)&lt;/b&gt;" style="text;html=1;align=center;verticalAlign=middle;whiteSpace=wrap;rounded=0;fontSize=15;" parent="1" vertex="1">
          <mxGeometry x="235" y="330" width="60" height="30" as="geometry" />
        </mxCell>
        <mxCell id="z7yP89r6i3u3OnS2TuMU-60" value="\(O_x=O_6\), discard" style="text;html=1;align=center;verticalAlign=middle;whiteSpace=wrap;rounded=0;" parent="1" vertex="1">
          <mxGeometry x="95" y="355" width="130" height="25" as="geometry" />
        </mxCell>
      </root>
    </mxGraphModel>
  </diagram>
</mxfile>
